<?xml version="1.0" encoding="UTF-8"?>
<svg xmlns="http://www.w3.org/2000/svg" viewBox="0 0 64 64" width="512" height="512" role="img">

  <defs>
    <linearGradient id="gold" x1="0" y1="0" x2="1" y2="1">
      <stop offset="0%" stop-color="#FFE8A3"/>
      <stop offset="45%" stop-color="#FFD06A"/>
      <stop offset="100%" stop-color="#F5B544"/>
    </linearGradient>
  </defs>
<g fill="none" stroke="url(#gold)" stroke-width="3" stroke-linecap="round" stroke-linejoin="round">

  <!-- cloud -->
  <path d="M18 38 a10 8 0 0 1 8-12 a10 10 0 0 1 20 4 a8 8 0 0 1 0 16 h-28 a6 6 0 0 1 0-12"/>
  <!-- circular arrows -->
  <path d="M30 40 a8 8 0 0 0 8-8"/>
  <polyline points="38,36 41,32 35,32"/>
  <path d="M30 28 a8 8 0 0 0 -8 8"/>
  <polyline points="22,32 19,36 25,36"/>
</g>
</svg>
